/* XPM */
static char *_640715263890[] = {
/* columns rows colors chars-per-pixel */
"48 48 203 2 ",
"   c #143C2F",
".  c #183E2E",
"X  c #143C31",
"o  c #183F35",
"O  c #0F382D",
"+  c #723213",
"@  c #793716",
"#  c #1B412E",
"$  c #1C4233",
"%  c #1E443A",
"&  c #22442D",
"*  c #2C442D",
"=  c #2B4A2C",
"-  c #334C2B",
";  c #3A4B29",
":  c #22473B",
">  c #204330",
",  c #3B5028",
"<  c #484D28",
"1  c #5C4D27",
"2  c #525B26",
"3  c #615F27",
"4  c #5F6027",
"5  c #626226",
"6  c #6A6326",
"7  c #7C6A26",
"8  c #2D5147",
"9  c #32554B",
"0  c #365749",
"q  c #3C5D54",
"w  c #2B4F44",
"e  c #43635A",
"r  c #48665C",
"t  c #7B6F54",
"y  c #4C6A62",
"u  c #516F67",
"i  c #55726A",
"p  c #677566",
"a  c #747463",
"s  c #823B15",
"d  c #943E17",
"f  c #8D4116",
"g  c #994719",
"h  c #9F5118",
"j  c #A8521B",
"k  c #B45A1A",
"l  c #A54A1A",
"z  c #BC621B",
"x  c #834D34",
"c  c #8F5028",
"v  c #AC5427",
"b  c #876728",
"n  c #957826",
"m  c #906737",
"M  c #A16030",
"N  c #B07425",
"B  c #CF731D",
"V  c #D37A1C",
"C  c #D25827",
"Z  c #DC5A23",
"A  c #D75724",
"S  c #E25B23",
"D  c #CB692A",
"F  c #DC6C20",
"G  c #D46E2F",
"H  c #D96621",
"J  c #DC7222",
"K  c #DD7C2B",
"L  c #DB762B",
"P  c #C47135",
"I  c #EE7B22",
"U  c #E57722",
"Y  c #F07E21",
"T  c #8F5D45",
"R  c #976953",
"E  c #B0704E",
"W  c #AE795F",
"Q  c #BD7350",
"!  c #AE6D41",
"~  c #9F7660",
"^  c #A37862",
"/  c #B47E66",
"(  c #C37B4E",
")  c #B38526",
"_  c #DA851D",
"`  c #E4891E",
"'  c #E88A1F",
"]  c #E2931E",
"[  c #ED9C1E",
"{  c #EB941E",
"}  c #F49E1F",
"|  c #F1961F",
" . c #F5A21E",
".. c #F8A71E",
"X. c #E1B31F",
"o. c #F9B31D",
"O. c #FABA1C",
"+. c #C88C22",
"@. c #CF9120",
"#. c #DE9222",
"$. c #DE8D2E",
"%. c #E88822",
"&. c #F18A21",
"*. c #F08522",
"=. c #E29323",
"-. c #E49921",
";. c #EC9120",
":. c #F59E21",
">. c #F39220",
",. c #E28836",
"<. c #F5A121",
"1. c #F9C81B",
"2. c #FDD01A",
"3. c #AA8875",
"4. c #B78974",
"5. c #BE937E",
"6. c #CE8D4F",
"7. c #E59140",
"8. c #C79778",
"9. c #D1967B",
"0. c #CC916A",
"q. c #CDA377",
"w. c #D8B86A",
"e. c #728A84",
"r. c #81968F",
"t. c #889C96",
"y. c #9F998D",
"u. c #AA9581",
"i. c #B89988",
"p. c #B69F92",
"a. c #9AA798",
"s. c #8EA19B",
"d. c #A7AC97",
"f. c #BCA99B",
"g. c #A9B29A",
"h. c #ABA38F",
"j. c #9AABA5",
"k. c #A7B4AB",
"l. c #B2B2AF",
"z. c #B6B5B2",
"x. c #B8B7B4",
"c. c #BAB9B6",
"v. c #BEBDB9",
"b. c #B4BCB5",
"n. c #A7B6B2",
"m. c #CA9D87",
"M. c #D19D84",
"N. c #CEA18B",
"B. c #CAA889",
"V. c #C7A798",
"C. c #D3B79C",
"Z. c #D2AB82",
"A. c #C8AFA1",
"S. c #C9B7A6",
"D. c #D6B5A5",
"F. c #D9B5A3",
"G. c #DABBA7",
"H. c #C0BFBB",
"J. c #CCBFB6",
"K. c #D5BFB3",
"L. c #DABEB0",
"P. c #BBC2B5",
"I. c #DAC2AB",
"U. c #C3C1BE",
"Y. c #C7C5B5",
"T. c #D4C1B3",
"R. c #DBC3B5",
"E. c #D3C4BC",
"W. c #DFC9BC",
"Q. c #DCC7B8",
"!. c #E1CABC",
"~. c #BAC6C3",
"^. c #C6C5C1",
"/. c #C8C7C3",
"(. c #CAC9C5",
"). c #CECDC9",
"_. c #C4C8C2",
"`. c #DCCDC2",
"'. c #D5CFCA",
"]. c #D4D1CC",
"[. c #D9D4CE",
"{. c #D7D6D2",
"}. c #DBDAD6",
"|. c #DEDDD9",
" X c #D7D8D3",
".X c #CDD2CD",
"XX c #E5CFC3",
"oX c #E4D4CB",
"OX c #E5D3C8",
"+X c #E0DEDA",
"@X c #E8DBD2",
"#X c #E3E1DD",
"$X c #EEE5DE",
"%X c #E6E5E1",
"&X c #E9E6E2",
"*X c #EDEBE6",
"=X c #EFEDE8",
"-X c #F1EEEA",
";X c #F2ECE7",
":X c #F5F3EE",
">X c #F8F4EF",
",X c #F7F4F0",
"<X c #F9F6F1",
/* pixels */
"v.+X>X:X>X<X<X<X<X<X<X<X<X<X Xx.v.+X:X>X<X<X<X<X<X<X<X<X<X<X|.x.b.|.>X,X<X<X<X<X,X<X<X<X<X<X+Xz.",
"#XU.:X:X<X<X<X<X<X<X<X<X<X,Xb..X#XU.:X<X<X<X<X<X<X<X<X<X<X,Xx.).$XU.:X>X<X<X<X<X<X,X<X<X<X,XP./.",
"<X:X|.:X<X<X<X<X,X,X<X<X:X|.$X%X*X:X+X-X<X<X<X<X<X<X<X<X,X+X*X+X X X).:X<X<X<X<X<X<X<X<X:X+X:X,X",
"<X<X:X+X<X<X<X<X<X<X<X<X}.t.y e r r.*X+X,X,X<X,X<X<X<X<X+X:Xa.q 0 0 r _.>X,X<X<X<X<X<X<X+X-X>X<X",
"<X<X<X<X|.:X<X<X<X<X:X}.-Xa 6 n b t *X>X+X:X>X,X<X<X,X+X:X>Xy.b ) ) m [.+X=X<X<X<X<X>X+X:X>X<X<X",
"<X<X<X<X:X|.:X<X<X<X|.:X<X^ J ;.&.6.;X>X:X|.>X<X<X,X+X-X,X,Xi.k ' %.G oX:X|.:X<X<X,X+X=X>X>X<X<X",
"<X<X<X<X<X:X^.+X Xl.:X,X:X^ l J B 6.*X>X>X>X^.|. Xz.:X<X<X<XV.f V _ P @X<X,X/.}.|.l.:X>X<X<X<X<X",
"<X<X<X>X,X<X#Xv.z.).>X:X:X3.j =.#.0.:X>X>X<X#Xv.z.).<X<X<X<XV.j <.<.7.$X<X<X&Xx.b.(.>X>X<X<X<X<X",
"<X<X<X<X<X<X Xz.c.|.,X,X>Xp * = = p :X<X<X<X}.x.b.|.<X<X<X<Xi.z  . .,.@X<X<X|.z.x.}.<X<X<X<X<X<X",
"<X<X<X<X<X:Xz.].#XU.:X<X-Xy X $   e *X<X<X,Xx.'.#XP.:X<X<X<X4.B .. .U @X<X<Xv.(.%XU.:X<X<X<X<X<X",
"<X<X<X<X:X|.:X<X<X:X|.:X&Xq 8 i w q %X,X,X|.-X<X<X<X|.-X<X>XW V  . .L XX,X+X:X:X<X>X|.-X<X<X<X<X",
"<X<X<X<X}.:X<X<X,X,X:X|.}.9 i r i 9 |.<X+X-X,X<X<X<X:X|.>X;XE '  . .F L.#X=X:X,X<X<X,X|.,X<X<X<X",
"<X<X:X|.,X<X<X<X<X<X<X,Xb.: e i e : ].+X,X,X,X,X<X<X<X<X+X#XN >. . .V V.:X:X<X<X<X<X<X,X+X-X<X<X",
"<X,X}.:X<X<X<X<X<X<X<X<XP.> > $ $ : z.:X<X,X,X,X<X<X<X<X:XE.P :. . .F m.>X<X<X<X<X<X<X<X:X+X:X,X",
"{.z.:X<X<X<X<X<X<X<X<X<Xn.$     X $ b.:X,X,X<X<X<X<X<X<X,XXXG :. . .F m.<X<X<X<X<X<X,X<X<X,X(.}.",
"z..X<X>X>X<X<X<X<X<X<X<Xs.o   X X # k.:X<X<X<X<X<X<X<X<X,XR.L :. .} F 4.<X<X<X<X<X<X<X<X<X<X&Xz.",
"v.#X:X:X>X<X<X<X<X<X<X<Xu.6 5 4 4 1 d.>X<X<X<X<X<X<X<X<X<XF.%. . . .F / :X<X<X<X<X<X<X<X<X<X#Xx.",
"}.U.:X:X<X<X<X<X<X<X<X:X0.-.<.[ [ H 5.,X<X<X<X<X,X<X<X<X<X8.%.<.:. .*.Q ;X<X<X<X<X<X<X<X<X>Xv.^.",
":X:X|.:X<X<X<X<X<X<X<X#XM _ <. .O.[ ! &X<X<X<X<X<X<X<X<X#X! _ -. .O.O.N `.<X<X<X<X<X<X<X:X#X=X:X",
":X>X:X#X<X<X<X<X<X<X<Xq._  . . .1.2.X.C.<X<X<X<X<X<X<X<XB.]  . ...<.2.1.w.-X<X<X<X<X<X<X+X=X:X<X",
"<X<X<X<X|.:X>X<X<X<XoX-. . . . .<.o.O.6.].:X<X<X,X,X,X].7.<.<.<. .<...O.+.K.<X<X<X<X,X+X-X<X<X<X",
"<X<X<X<X:X|.:X<X<X:XB.-. .<. . . .} I D R.}.,X<X<X,X|.T.#.<.<... . . .I Z 5.,X,X<X<X|.=X<X<X<X<X",
"<X<X<X<X<X:XU.#X}.x.q.[ <. . . . . .U A D.,X/.#X|.z.=XC.]  ... .<. .<.*.S 9.(.|.+Xz.=X<X<X<X<X<X",
"<X<X<X<X<X>X#Xx.x.).q.[  . . .<.}  .I A C.<X+Xx.b.(.:XC.]  . . .<.<.<.*.Z 9.%Xz.v.^.>X<X<X<X<X<X",
"<X<X<X<X<X<X}.b.b.#Xq.[ <.<... .}  .Y A G.<X|.b.z.#X,XI.]  . . . .}  .&.S 9.+Xx.z.}.<X<X<X<X<X<X",
"<X<X<X<X<X>Xl.).#XP.q.[ ..-.+.+.@.-.Y A G.:Xx.(.|.v.:XI.]  . . . . . .&.S 9.c.^.#Xv.:X<X<X<X<X,X",
">X<X<X<X:X+X:X>X,X:Xq.] n 2 - - < 5 N A G.+X-X<X<X:X|.I.]  . . .<. . .&.S 0.=X,X<X,X}.-X<X,X<X<X",
"<X<X<X<X+X:X>X>X,X<Xq.b = #       # - v V.;X<X,X<X<X:XC.]  . . . . . .*.S 8.,X,X<X<X:X+X,X,X<X<X",
"<X>X:X|.:X>X<X<X<X<Xh.- X X % q $ X   < S.>X<X<X<X<X<XQ.-. . . . . . .&.S 9.<X<X<X<X<X<X+X-X<X<X",
"<X>X|.:X>X>X<X<X<X<Xa.& X $ y u e X X = P.<X<X<X<X<X<XW.#. . . . . . .&.S M.<X<X<X<X<X<X,X}.,X,X",
"}.x.:X<X>X<X<X<X<X<Xd.# O O q u 8 O   & P.<X<X<X<X<X,XW.=.<.<. . . . .*.S M.<X<X<X<X<X<X<X,X(.}.",
"x.).<X<X<X<X<X<X,X,Xd.X q e y y y r : > Y.<X<X<X<X<X,XW.%.<.:. . . ...*.S M.<X<X<X<X<X<X<X<X%Xz.",
"x.&X<X<X<X<X<X<X<X<Xg.$ j.P.n.j.j._.i > Y.<X<X<X<X<X<XXX$.}  . .}  . .&.S 9.<X<X<X<X<X<X<X<X#Xc.",
"}.U.>X<X<X<X<X<X<X<Xg.> e.s.t.t.e.s.i & Y.<X<X<X<X<X<XXX%. . . .<. . .&.Z M.<X<X<X<X<X<X<X<XP.U.",
":X:X|.:X<X<X<X<X<X<Xg.& $ w 9 9 9 % o ; Y.<X<X<X<X<X<XXXK  .:. . . . .&.S N.<X<X<X<X<X<X,X#X=X<X",
":X>X:X|.<X<X<X<X<X<Xf.- X X o o $ X # 1 T.<X<X<X<X<X<XOXL  . . . . . .*.Z N.<X<X<X<X<X<X#X*X<X<X",
"<X<X<X>X+X:X<X<X<X<XC.c = #   X   & < v A.:X<X<X<X<X,XK.L <.<. . . . .&.Z N.<X<X<X<X,X+X=X<X<X<X",
">X<X<X<X:X|.,X<X<X<XV.U ) 4 4 6 2 7 B C L.}.>X<X<X>X+X`.L :. .<. . . .&.Z 5.<X<X<X<X#X=X,X<X<X<X",
"<X<X<X,X,X:X^.&X#Xc.C.U <.[ #.[ -. .Y C R.:X/.#X#Xc.;XXXL :.:.<. . . .' Z N.U.#X#Xv.=X>X<X<X<X<X",
"<X<X>X>X,X<X}.x.x.(.G.K <. .<... . .Y C R.<X+Xz.b.U.:XOXG :.:.<. . .<.&.Z N.#Xl.x.^.<X<X<X<X<X<X",
"<X<X<X<X<X<X|.b.x.#XG.U }  . .<.<. .*.C R.<X+Xc.x.#X,XoXG }  . . .:. .| Z N.#Xv.z.+X,X<X<X<X<X>X",
"<X<X<X<X<X:Xz.(.}.U.F.S :.} { ' ' :.&.C R.<Xb.(.+Xv.,XoXD >.[ ` V _ | ' H N.c.U.#Xx.:X>X<X<X<X,X",
"<X<X<X<X:X|.-X,X>X:Xf.l k j f s d l v g T.+X=X,X<X,X}.oXc l f s @ s d g d i.*X<X<X:X|.:X<X<X<X<X",
"<X<X<X<X+X-X>X>X>X<XW.1 + + + + + + @ x E.=X,X<X,X,X:X[.^ @ + + + + + + x J.<X<X<X<X:X|.,X<X<X<X",
"<X<X,X+X:X>X>X<X<X<X,X`.3.~ R T T R u.J.-X<X<X<X<X<X<X,X[.K.p.3.^ ^ 3.p.'.<X<X<X<X<X<X<X+X:X>X,X",
"<X<X+X-X>X<X>X,X<X<X<X<X-X+X;X&X=X-X%X=X,X<X<X<X<X<X<X,X:X}.:X<X>X:X#X=X<X<X<X<X<X>X<X<X>X|.>X<X",
"+Xv.:X,X<X<X<X<X<X,X>X<X<X:X_.&X#Xv.-X<X<X<X<X<X<X<X<X<X<X,X^.%X%Xc.=X:X<X<X<X<X<X<X,X<X,X>X(.#X",
"z./.,X,X<X<X<X<X<X<X>X<X<X<X|.z.x./.,X<X<X<X<X<X<X<X<X<X<X<X+Xz.x.^.>X<X<X<X<X<X<X<X<X<X<X,X#Xl."
};
