/* XPM */
static char *_640783708513[] = {
/* columns rows colors chars-per-pixel */
"48 48 240 2 ",
"   c #5E132F",
".  c #681538",
"X  c #75173B",
"o  c #6B0F30",
"O  c #5B312B",
"+  c #5B3532",
"@  c #5C2833",
"#  c #67372A",
"$  c #6A3131",
"%  c #714731",
"&  c #1E3B7A",
"*  c #1E376F",
"=  c #223C79",
"-  c #213969",
";  c #781947",
":  c #6F1D42",
">  c #7A274A",
",  c #782855",
"<  c #773558",
"1  c #6D2D4D",
"2  c #7D3D63",
"3  c #254478",
"4  c #24406F",
"5  c #1F407C",
"6  c #694846",
"7  c #775956",
"8  c #74564D",
"9  c #7E6158",
"0  c #7D4C64",
"q  c #7F6564",
"w  c #83163E",
"e  c #946A3A",
"r  c #845D38",
"t  c #831A45",
"y  c #931C4D",
"u  c #8A365D",
"i  c #8E2C57",
"p  c #A32D5B",
"a  c #963565",
"s  c #A33667",
"d  c #A73F72",
"f  c #997B4A",
"g  c #856757",
"h  c #9A7B55",
"j  c #8F6D4F",
"k  c #8A5171",
"l  c #924C6F",
"z  c #AB4677",
"x  c #B44778",
"c  c #A35579",
"v  c #AA416F",
"b  c #856C65",
"n  c #917373",
"m  c #956163",
"M  c #9E8152",
"N  c #9F824C",
"B  c #A28553",
"V  c #A98C57",
"C  c #B19253",
"Z  c #BDA25B",
"A  c #9A8374",
"S  c #AB9162",
"D  c #AD9268",
"F  c #BCA571",
"G  c #CEB35D",
"H  c #C5AB66",
"J  c #CCB465",
"K  c #D4BA64",
"L  c #C2AC77",
"P  c #CCB775",
"I  c #D2BD74",
"U  c #DAC676",
"Y  c #DBC26A",
"T  c #E1C96B",
"R  c #E2CE79",
"E  c #E1CC76",
"W  c #ECD87A",
"Q  c #223E84",
"!  c #1E3E82",
"~  c #1E428C",
"^  c #1D4284",
"/  c #1C4593",
"(  c #16489C",
")  c #1B4C9C",
"_  c #1B4896",
"`  c #1E539F",
"'  c #234385",
"]  c #21428B",
"[  c #274A88",
"{  c #374D89",
"}  c #34588D",
"|  c #224C94",
" . c #28569B",
".. c #31558C",
"X. c #3A659A",
"o. c #1D52A3",
"O. c #194DA1",
"+. c #2254A3",
"@. c #285CA5",
"#. c #2C65AB",
"$. c #3769A6",
"%. c #3D72AA",
"&. c #336DB3",
"*. c #3B78B8",
"=. c #2C68B1",
"-. c #485D93",
";. c #426D9C",
":. c #45669B",
">. c #49769D",
",. c #58699A",
"<. c #6B7997",
"1. c #446EA2",
"2. c #4473A5",
"3. c #4978A7",
"4. c #437EB9",
"5. c #5671A4",
"6. c #687BA6",
"7. c #B85888",
"8. c #AF5281",
"9. c #967285",
"0. c #B96993",
"q. c #AD7290",
"w. c #C2588D",
"e. c #C66799",
"r. c #C7769C",
"t. c #CF7BA7",
"y. c #5384A9",
"u. c #4A84BA",
"i. c #568AB8",
"p. c #5C97BB",
"a. c #5B96BB",
"s. c #4F80A7",
"d. c #6F90B4",
"f. c #69A0BF",
"g. c #4B8AC3",
"h. c #4686C1",
"j. c #5492C2",
"k. c #5A9AC9",
"l. c #598FC0",
"z. c #639FC2",
"x. c #769DC1",
"c. c #69A1C1",
"v. c #6CAACD",
"b. c #65A4CB",
"n. c #76A9CA",
"m. c #67AAD3",
"M. c #6FB1D5",
"N. c #73B4D4",
"B. c #7BBDDA",
"V. c #76B8D7",
"C. c #6EB0CF",
"Z. c #5CA0CC",
"A. c #7DC1DD",
"S. c #7EC3E1",
"D. c #998983",
"F. c #A28C87",
"G. c #A6958C",
"H. c #B7869C",
"J. c #AA9A96",
"K. c #B0988E",
"L. c #B5A498",
"P. c #B1A697",
"I. c #8991AC",
"U. c #B38EA2",
"Y. c #BB98A6",
"T. c #AB9FA0",
"R. c #9CA5BA",
"E. c #85A5BB",
"W. c #AEAAA5",
"Q. c #A8A7AC",
"!. c #B1AEA9",
"~. c #B9AAA8",
"^. c #B4B1AC",
"/. c #BCB9B4",
"(. c #BFB0B4",
"). c #ABA8B2",
"_. c #C8B58A",
"`. c #CB89AB",
"'. c #D682AD",
"]. c #D099B1",
"[. c #C4BBB8",
"{. c #C3B3A1",
"}. c #DACA8A",
"|. c #E9D88A",
" X c #EADA98",
".X c #D7C9AA",
"XX c #CDC1BE",
"oX c #DBCFB6",
"OX c #E4D6A6",
"+X c #E7DAB5",
"@X c #EDE2AD",
"#X c #F1E6B2",
"$X c #F6E881",
"%X c #97B3C9",
"&X c #83BBD6",
"*X c #8AB1CD",
"=X c #A7B4C7",
"-X c #D0BDC6",
";X c #E3B9CB",
":X c #86C2DD",
">X c #9ACADF",
",X c #B5CBD7",
"<X c #88C9E2",
"1X c #9CD2E5",
"2X c #9ACDE1",
"3X c #A6D5E5",
"4X c #B6D6E3",
"5X c #CCC5C3",
"6X c #D7CBC9",
"7X c #D9D1CD",
"8X c #D6D2CC",
"9X c #C7CAD3",
"0X c #DBD5D2",
"qX c #DDDAD5",
"wX c #D7D7DB",
"eX c #CAD3D9",
"rX c #E1DDD9",
"tX c #E4D9D7",
"yX c #E2D8C9",
"uX c #E6E2DD",
"iX c #E9E2DE",
"pX c #E9E2D7",
"aX c #EDE2C4",
"sX c #DDDDE1",
"dX c #C0D9E5",
"fX c #DAE7EA",
"gX c #C8E2EB",
"hX c #EAE5E1",
"jX c #EEEAE5",
"kX c #ECEBE9",
"lX c #E4E4E6",
"zX c #F1ECE6",
"xX c #F2EEEA",
"cX c #F6F3EE",
"vX c #F8F4EF",
"bX c #F9F6F1",
"nX c #FCF9F4",
"mX c #FBF9F5",
"MX c #EDF0EF",
"NX c #F2DCE1",
/* pixels */
"^.rXmXcXbXbXmXbXbXhXtXY.U.k 2 1 1 < q.NXbXbXbXbXbXjXvXvXtXU.k < < k k q.7XbXvXmXvXvXbXbXbXnX8XW.",
"uX[.bXbXbXcXmXcXbXr., . z . . 7.7.7.7.t.bXbXnXbXjX'.9.2 , e.7.0.: i 7.7.w.NXbXvXvXmXmXvXnXbX^.8X",
"mXbX0XbXnXcXbXuX[.c t X e.; w r.7.Y.U.tXmXvXbXxXY.w.8.. . c : , v a H.H.6XzX7XxXnXvXcXbXcX0XbXnX",
"cXmXcX0XxXbX6Xq @ > a y w.p p c x u ; < cXmXcX9X, u 8.: ; z ; y c s a X ; 1 @ ~.NXjXjX0X[.6XjXbX",
"bX6XK.b 7 n 6 @ . > d p i p x l 8.z d i 0XcXbXq.s . z ; t e.x w.i s x x X . j Z P P P Z Z L P 6X",
"yXJ W W W W W W F . z v w x x > x c H.6XjXqXbXk 7.s w.a w r.8.X o s u > @ . n OXOXOX}.OXOXOX}.I ",
".X|.oXoX+X+X_..XoX$ v x X x w.> x l . Y.vXbX/.q.t.r.`.x X 8.7.t o p X o o @ n hX0X!.cXxXiX[.F.K ",
"L +Xq 7 ~.[.rX/.!.1 i `.i s ].2 8.c ; 1 tXmXhXq.U.0 < d > ].t 7.X s > ; X k (.W.!.0XmXjX0X7 # G ",
"F .X+ {.cXnXqX^.!.rXH.;Xc , ;Xk 8.'.'.'.bXmXqX0.Q.9.2 u U.;X, ; 0.d '.'.t.NXqX^.^.iXnXbXvX7X+ G ",
"V .X7 vXbXcX!.0XhX/.cXcXhX7XbXqXhXcXbXbXmXvXW.wXhX/.xX0XxXvXU.9.-X-XjXcXmXbXW.0XhX/.bXnXbXbXb K ",
"D #X5XnXvXqXbXmXmXbXqXcXbXbXmXbXbXcXbXbXbXrXvXmXnXmXqXcXmXvXMXxXxXbXcXbXcXrXcXmXmXmXrXxXnXbXP.K ",
"S +X5XxXrXxXnXvXbXkXcXrXcXbXbXcXbXbXmXcXrXxXmXvXbXmXcXrXcXbXvXvXbXbXnXbXqXxXcXcXbXmXzXrXcXbXF.K ",
"h OXhXqXcXmXbXxXkX=X9X9X0XxXnXbXvXbXlX5X-XsXMXvXcXxXnXvXwXsXwXlXmXbXxXrXcXbXvXvXbXcXmXcXqXcXn E ",
"h OXqXvXbXbXxX9X:.i.n.u.-.I.kXmXsXd.3.3.2.X...6.=XI.d.{ -.X.$.{ = -.d.%XlXxXvXiXeX,XlXnXcXqXA U ",
"K.U vXbXbXmXkXn.B.f.y.v.V.1.I.6X-.V.V.V.N.&Xm.[ ! 1.B.[ 1.B.&Xm.3 i.B.A.%XsXd.,.z.A.2XcXmXbXF.R ",
"A U lXxXbXsX3Xf.4 * ^ & } N.3.{ 2.5.* = = Q 3.m.Q m.- = / ' Q l...n.- = V.5.] } p.- n.fXbXMXP.U ",
"g U iXbXxX%X2.* ~ *.j.=.( | B.| 4.;.~ h.m.&.O.k.u.p.Q +.*.*.*.V.3 c.' / 4.i.( &.s.' j.fXcXxXb U ",
"g I bXbXbXI.= Q h.v.3.V.=.( 4.i.4.;.( $.;.M.+.=.<Xp._ *.V.b.k.>.& c.^ / ) M.o.&.s./ j.fXbXbXb }.",
"L.U wXxXxX3.Q | V.4 - X.m.( O.:Xa.;.( ( / Z.#.o.<Xp./ u.C.z.p.X.~ c.~ ( ( h.u.&.s./ j.fXcXqXL. X",
"~.I kX8XeXy.Q &.>.= Q ] b. .( B.n.;./ ) o.m...o.<Xp.| @.>.%.2.V./ z.^ =.#.o.V.*.s./ j.fXqXzX.X@X",
"G.J 0X).E.>.' k...] ] ~ i.X.( m.&X1.( Z.S.i.^ *.>Xp._ o.` o.) m.^ f.~ g.v.+.g.m.s.( j.dXhXcXS @X",
"[.J tXmX4X>.] z.3 [ ] ' u.X.( Z.>XX.( _ ' = _ M.4Xp./ *.A.B.A.p.= f.~ g.S.&.@.<Xs./ j.fXmXcXA #X",
"[.H 6XxXdX>.] u.X.] ] ] j.} ( m.2X;.( o. .o.u.1X=Xp./ u.i.X.X.4 ^ z./ h.&Xj.+.g.s.] i.fXcXnXF @X",
"yXP yXcXfXy.Q $.p.Q Q ' v.3 _ :X3X:./ b.S.S.1XQ.6.p.~ *.2.) / ~ / X.^ u.*XM.) o.3 ' j.fXmXbXP.#X",
"7XH +XQ.R.C.^ ( M.*.) ` >.5 +.3Xd.= / M.qXwX/.<.X.a./ u.u.&.&.@./ ~ / h.x.u.i.( / ] j.fXMX5XS @X",
"rXF +XcXxX*XX.( ` v.a./ ^ ~ k.gX5.] / N.=X{ <.I.:.a.~ &.C.C.C.A.@.| / h.*X) V./ / ' j.fXbX8Xj @X",
"jXS +XbXcX%XN._ / ~ 3 ' /  .<XlXi.$./ N.wXR.cXmX6.p.~ ) [ [ 3 2.n.j._ u.%X| k.$.] Q v.lXmX8XM @X",
"iXS #XvXrXcX4XB.%. .|  .u.<XlXlXd.x.1.:XrXxXbXcXwX:X2.#.#.#.#.k.gX:X2.V.9X5.,.B.2.i.3XqXxXxXL +X",
"uXM OXQ.rXnX9X,X1XA.A.A.3XfXnXkX=X*X1XeXbXnXbXbXbX%X3X1X2X1X1X3XcXd.1X,XcX9XR.*X1X4XMXcXrX/.L OX",
"jXj OXq rXcXxXjXbXcXkXmXzXqXmXmXbXkXwXcXbXcXbXbXmXkXcXmXxXqXnXnXnXlXqXcXcXcXcXkXbXvXbXmXMXq H aX",
"8Xj @X8 J.bXcXbXbXcXbXbXbXbX/.hX0XW.cXbXnXbXbXbXbXvXbXcXnXmX/.iX0XW.cXmXvXbXbXbXcXbXmXcXkX6 Z .X",
"!.~.}.8 + J.cXbXmXrX0XuXbXbXuX!.^.0XmXcXbXbXbXbXbXbXbXcXbXnXuX^.^.0XbXbXbXbXbXbXbXbXbXbXF.O Z P.",
"!.8XK B f B _.}.F P.F _.F _.L K.T.hXbXbXcXbXmXbXcXuX8X0X0X0X[.J.W.5X0X8X8X0X8X0XtXuXrX6X6 O G G.",
"uX^.{. X XU  X X X X X$X X}.U T 7 J.bXbXbXmXcXbXpXS C V B B M B S N B N N B N M B D B f f C U 6X",
"bXbXqXzXzXpXzXzXzXzXzXzXuX8XrXF Z J.qXcXmXbXbXbXoXU U |.$X|.|.|.|.|.U U U E E E R R R R R R aXmX",
"bXbXxXpXcXbXvXbXnXnXnXcXqXzX5X7 Z N ^.rXcXmXbXbXK.U L.L.XXcXnXcXbXnXcXrXcXmXbXbXmXmXnXcXrXxXbXcX",
"bXbXbXcXqXcXnXbXbXbXxXqXvXbXvXiXg Y j rXqXcXbXcXg U b + 6XnXbXbXbXbXbXcXpXcXnXbXbXnXxXrXMXmXmXcX",
"bXcXbXnXcXqXnXnXnXbXrXcXvXbXbXbX~.g Y j D.0XbX~.% T b n jXbXbXbXbXbXvXnXxXqXnXnXnXbXqXcXbXbXcXmX",
"bXbXbXbXbXbX/.uXqX!.vXnXbXnXbXbXbXXXf H 6 qX~.n + J F.0XcXbXbXbXbXbXbXbXbXbX/.uX0X^.bXbXcXnXmXcX",
"bXbXcXcXbXnXuX^.!.qXnXbXcXbXbXbXbXbXF.Z f 6 % O # P XXcXbXbXmXvXbXbXbXvXbXnXuX^.^.0XbXbXmXcXbXmX",
"nXcXbXbXbXmXqX^.^.uXmXbXbXnXbXbXbXbXzXn Y r O O # K xXbXbXbXbXbXbXnXbXbXcXnXqX^.^.uXnXbXbXbXbXcX",
"cXbXbXbXnXbX!.8XuX/.bXbXnXcXbXbXcXbXbX0Xg Y r # # J XXhXnXcXbXbXbXbXbXbXnXcXW.qXrXXXbXbXbXbXbXbX",
"bXbXbXnXcXqXbXbXnXbXqXcXnXcXbXbXbXmXbXzXL.N H # # K A qXnXcXbXbXbXbXbXbXcXqXbXnXnXbXqXcXnXcXbXnX",
"bXbXnXcXqXxXbXcXbXbXcXqXcXnXbXbXbXcXmXcXqXn C C # G ^.qXxXnXcXbXbXbXnXcXqXcXbXbXcXnXcXqXcXnXcXbX",
"bXbXcXqXxXnXcXbXbXbXnXcXqXcXcXbXnXbXcXqXvXtX8 K e G oXxXqXcXbXbXbXnXxXqXcXbXbXbXbXcXmXcXqXbXnXcX",
"nXnXqXcXbXcXbXbXbXbXcXnXcXqXnXnXmXbX0XcXbXvXJ.% T T tXvXcXqXnXnXnXbXqXbXbXbXbXbXnXbXcXnXcXqXbXmX",
"8X!.bXbXbXbXnXbXbXbXcXbXnXbX/.uXqX!.bXmXbXbX-Xg f $XyXvXnXcX/.uXqXW.bXnXbXbXbXbXbXbXcXbXbXbX[.rX",
"W.8XnXbXbXbXcXbXbXbXbXbXbXnXuX^.!.7XmXvXbXbXnXxXK.I pXvXbXmXuX!.!.8XnXbXbXbXnXcXbXbXbXbXbXnXuX^."
};
