/* XPM */
static char *_640784066723[] = {
/* columns rows colors chars-per-pixel */
"48 48 221 2 ",
"   c #0F1D39",
".  c #111C3D",
"X  c #101839",
"o  c #0F2B3B",
"O  c #0E2839",
"+  c #11223E",
"@  c #112C3D",
"#  c #0E343A",
"$  c #0F3A3A",
"%  c #0E3834",
"&  c #11353D",
"*  c #113D3C",
"=  c #123C35",
"-  c #0E4529",
";  c #0F4734",
":  c #11443C",
">  c #114B3C",
",  c #144633",
"<  c #0F5936",
"1  c #11533C",
"2  c #125C3D",
"3  c #1A5835",
"4  c #0E512D",
"5  c #245D37",
"6  c #0F6337",
"7  c #13623C",
"8  c #136C3A",
"9  c #18753B",
"0  c #356A3B",
"q  c #3A793D",
"w  c #131C43",
"e  c #191E4A",
"r  c #161D48",
"t  c #132343",
"y  c #132A43",
"u  c #16244A",
"i  c #1B214D",
"p  c #162B4C",
"a  c #192B4E",
"s  c #123343",
"d  c #143C44",
"f  c #16344E",
"g  c #173C4D",
"h  c #18394F",
"j  c #1E2453",
"k  c #1B2B55",
"l  c #1D2B59",
"z  c #1B2854",
"x  c #1B3354",
"c  c #1B3A55",
"v  c #1C335A",
"b  c #1D3B5A",
"n  c #202556",
"m  c #21265A",
"M  c #222A5D",
"N  c #222957",
"B  c #32395B",
"V  c #1F3361",
"C  c #1E3C62",
"Z  c #242D63",
"A  c #262F69",
"S  c #282E6C",
"D  c #253364",
"F  c #26326B",
"G  c #2B346C",
"H  c #283669",
"J  c #32396B",
"K  c #293573",
"L  c #2A3877",
"P  c #323C76",
"I  c #134442",
"U  c #134B43",
"Y  c #17444A",
"T  c #184648",
"R  c #145343",
"E  c #145B43",
"W  c #165648",
"Q  c #1C4555",
"!  c #225F45",
"~  c #146443",
"^  c #176745",
"/  c #187444",
"(  c #286945",
")  c #2E7346",
"_  c #3A7745",
"`  c #3C4273",
"'  c #394379",
"]  c #3E436F",
"[  c #437C44",
"{  c #424679",
"}  c #454B7B",
"|  c #464A77",
" . c #4B527D",
".. c #495175",
"X. c #4D5379",
"o. c #5F637E",
"O. c #3A843F",
"+. c #148244",
"@. c #3B8447",
"#. c #32904A",
"$. c #498448",
"%. c #54954B",
"&. c #4C8C50",
"*. c #579B56",
"=. c #40964E",
"-. c #669E57",
";. c #5BA45A",
":. c #42A550",
">. c #67A658",
",. c #70A75D",
"<. c #6DAD64",
"1. c #6FAF69",
"2. c #6EB366",
"3. c #78B567",
"4. c #70AC67",
"5. c #82BC6A",
"6. c #87BF73",
"7. c #84C16B",
"8. c #89C56C",
"9. c #8CC672",
"0. c #95CB78",
"q. c #9BD07F",
"w. c #2D3A84",
"e. c #354486",
"r. c #344597",
"t. c #424C83",
"y. c #454D8A",
"u. c #4C5383",
"i. c #4A5689",
"p. c #555A84",
"a. c #595E86",
"s. c #545A86",
"d. c #4F5C97",
"f. c #5E628A",
"g. c #5B6185",
"h. c #5B6493",
"j. c #5B6696",
"k. c #656A8E",
"l. c #636789",
"z. c #646B93",
"x. c #6A6E91",
"c. c #626D9B",
"v. c #6E7294",
"b. c #6B739B",
"n. c #727694",
"m. c #737699",
"M. c #757A9A",
"N. c #7A7E9C",
"B. c #787B95",
"V. c #6E728D",
"C. c #6B76A4",
"Z. c #737CA3",
"A. c #717DAB",
"S. c #646FA5",
"D. c #7C819B",
"F. c #7C84A8",
"G. c #82859E",
"H. c #8C8B94",
"J. c #8285A1",
"K. c #8689A3",
"L. c #898BA4",
"P. c #8C8FA8",
"I. c #8E92A7",
"U. c #9295AA",
"Y. c #9699AD",
"T. c #999BAC",
"R. c #8D93B3",
"E. c #9C9EB1",
"W. c #9197B3",
"Q. c #858EB1",
"!. c #9CA1B8",
"~. c #9BA0AF",
"^. c #ADAAA5",
"/. c #A9A8AB",
"(. c #B1AEA9",
"). c #B4B1AC",
"_. c #A2A4B5",
"`. c #AAACBB",
"'. c #A6A9BA",
"]. c #AEB1BD",
"[. c #B1B2BD",
"{. c #BDBAB6",
"}. c #C0BDB8",
"|. c #AAAEC2",
" X c #A4A9C2",
".X c #ACB1C5",
"XX c #B3B5C2",
"oX c #B7B8C3",
"OX c #BABBC5",
"+X c #BCBECA",
"@X c #B5B9CB",
"#X c #BFC1CD",
"$X c #BEC2D1",
"%X c #C4C4CD",
"&X c #C9C8CA",
"*X c #D5D2CD",
"=X c #C2C5D2",
"-X c #C6C8D4",
";X c #CBCBD3",
":X c #C8CCD8",
">X c #D3D2D5",
",X c #D9D6D1",
"<X c #DDDAD5",
"1X c #D5D4D9",
"2X c #DCDBDC",
"3X c #D9D7DB",
"4X c #D0D0D5",
"5X c #E1DED9",
"6X c #E4E1DC",
"7X c #DBDDE2",
"8X c #E0DFE0",
"9X c #E4E3E4",
"0X c #E8E6E2",
"qX c #E6E6E9",
"wX c #EBEAEA",
"eX c #EBE8E7",
"rX c #F6F3EE",
"tX c #F9F6F1",
"yX c #FCF9F4",
"uX c #FFFDF8",
"iX c #F1EEEA",
/* pixels */
").5XuXiXtXtXtXtXtXtXtXtXtXuX*X(.).6XuXrXtX8XE.&XXXU.oXrXrXuX*X(.(.6XuXtXtXtXrXtXtXrXtXtXtXuX*X^.",
"6X}.tXtXtXtXtXrXrXyXtXtXtXtX^.,X6X{.rXtXyX0XB.a.p.Z B.rXuXrX^.,X0X}.rXyXtXtXtXtXtXyXtXtXtXrX(.*X",
"uXrX,XtXyXrXtXtXtXrXrXyXtX,XtXuXyXtX,XrXtXx.A P P F | 4XrX<XtXyXtXyX<XiXyXtXtXrXtXrXrXtXrX<XyXtX",
"rXyXrX<XrXuXrXtXtXrXuXiX<XrXtXtXtXtXtX5X5XJ J R.'.e.Z n.<XrXrXrXrXtXrX5XrXyXtXtXtXtXuXrX5XrXtXtX",
"rXrXuXrX,XrXyXtXtXtXrX5XiXuXtXrXtXtXeX;X .u.@XG.f.1Xu.v.x.OXrXtXtXrXyXrX5XrXtXtXtXtXrX5XiXuXtXtX",
"tXtXrXyXtX,XrXuXuXtX,XtXyXrXrXtXtXtXrXJ.F e..XK e.A.b.i.J 1XtXtXtXtXrXyXiX5XyXyXuXyX<XrXtXiXtXtX",
"tXtXtXrXtXtX}.5X<X^.tXtXtXtXtXtXtXtXoXu.L C.J.w.r.d.!.y.S B.tXtXtXtXtXtXyXrX}.0X,X(.tXtXtXtXyXtX",
"tXtXtXtXrXuX6X).).*XuXrXrXrXtXtXrX5X%Xl.t.#X|.w.w.S.7Xz.P J.tXtXtXtXtXrXtXyX5X(.(.,XyXrXtXtXrXtX",
"tXtXtXtXrXtX<X).(.0XuXrXtXtXtXtXl.H K e.@Xa.@XQ.S.:X` :Xi.P ` U.tXtXtXrXtXyX5X(.{.6XyXtXtXtXtXtX",
"tXtXyXtXyXrX(.,X0X{.rXtXtXtXtXtXU.Z K Q.N.A e.U.!...K j..XL F D.tXtXtXtXyXtX^.,X6X{.tXyXtXtXtXtX",
"tXrXtXyXrX<XrXuXuXtX5XrXtXtXtXtXX.S s.XXN F K Z l Z K L !.Z.K g.4XtXrXtXiX5XrXyXyXtX,XrXyXtXrXtX",
"tXtXyXrX5XiXyXrXrXtXrX5XiX1X+X`.v.} #XB M A Z M M Z Z Z K @Xf.M.'.4X8XrX5XiXrXrXtXyXrX,XrXyXtXtX",
"rXyXrX5XrXyXtXtXrXtXtXrX5X&XP K P E.v.l G G M Z A Z Z Z L j..Xe.L J } &XrXtXtXtXtXtXyXrX5XrXtXtX",
"uXtX<XrXyXrX0XeX1X%X8XeXU.P S L A.Y.Z K S Z M M m M Z M K L F.R.L S J [.eXrXrXtXtXrXtXyXrX,XtXyX",
"*X^.tXyX;XT.x.m m M p.'.M S S y.$XJ K A S S M M Z Z Z Z S w.e.@Xh.K S N.S ] V.J.~.U.G.~.yXtX{.6X",
"^._.B.D.F.v.k.J.x.x.a.z.s.u.' +X..P L L J S S Z Z Z A G K P e.e.-Xt.K a.k.m.B.m.D.N.D.#X;X,X&X^.",
"(.[.G K f.F.F.F.Z.N.Z.Z.Z.A. X+Xb.A.C.C.C.b.c.z.z.j.z.c.c.j.S.S.E..Xj.d.h.s.s.s.j.s.d.t.G A n.^.",
"6Xl.H Q.%XI.I.I.U.T.T.T.~.~.!._.'.'.'.`.`.].].[.[.XXoXXXOXOX#X+X%X%X$X=X=X=X%X;X;X;X;X7XF.F { &X",
"yXoXf._.i M M j N m N N z M l j M m N N j j j j N l m m j m l j M l l j z z j n n n z M '.h.` 9X",
"n.` E...G J G F D H D v H H D D H H D l Z D Z Z D D D l D D D H H H D k M D V M M Z G H } -Xv.E.",
"`.A '.N F Z M j k k x h b b c v x v x z k l l l k k k z v l v v b b b x b v l l M M A S L =Xu. .",
"E.A |.N A M j u u f f d c Y Y c h f f y z u u p f f f f f f f h h Y Q g h f f a i n m Z L $Xa.| ",
"3Xm.+Xe m r w . O # : : I > : = % $ # o o O O # # # # # $ # # $ : : > U ; $ @ O + w r m A =XN.'.",
"P.' XXM Z z u y s I R E ^ E R > U T U I d d d d I I T T T T T U R W E E W U Y @ + t i M K +XN.J.",
"L.S |.m Z j t y d R ,.2.2.2.<.&.U ^ &.R U I > 1 ( _ U R &.W R ) *.;.;.*.*.*.: s t t j Z L $Xs. .",
"E.F |.N m e . O d 3 0.>.>.-.-.[ > ( 9.) 2 R 2 8 3.$.R 2 5.3 R [ 5.3.q.6.6.5.: s + r e M K =Xa.k.",
"'.l.XXj m i t @ : 7 8.9 6 < < ; > 1 $.9.9 8 8 ;.<.- 1 < 7.3 1 < 4 < ,.O.; - % O   . r n Z =XK.OX",
"a.F .Xj Z j u s T 9 8.9 +./ ^ W U W ^ 2.;.+.#.7.5 R R 2 7.5 W R E / 2._ ~ U d y t i j M K =Xf.` ",
"G.F |.i M j t y U 7 8.9 +./ E R U U E / 9.:.0.q 1 R R 7 7.7 R U R ~ 2.q E I & + . r i m K =Xs.Z ",
"1X{ |.i M e t o > 7 0.2.2.2.*.> : : 2 9 #.q.>.6 2 1 1 2 7.3 1 : > 2 2.q 1 * @ + . w e N S =Xg.s.",
"D.o.+Xj M i t & > ^ 8.%.%.%.[ - : U 2 / :.q.>./ 7 1 1 2 8.3 > = : 2 <.q > * + X X X e j Z -XH.OX",
"o.A |.M Z j u @ U 8 8.9 8 6 1 > T T ^ +.9.@.8.#.~ R W E 7.5 U I U W 1._ U d u w . r j Z L =X .X.",
"o.A |.M M j t @ I ~ 8.9 +.9 ~ 1 U R 7 3.%.6 #.9.( 2 R ~ 8.3 U * I R <._ U s y X w w j Z K -Xu. .",
"&X| XXe N r . O ; 7 8.9 9 9 6 < > < *.3.- 6 8 ;.2.2 < 1 8., : # * 1 <.0 ; o + X X w e j S -X| V.",
"D.s.XXj Z j u y d 2 0.8.7.7.5.%.R ) 9.5 1 E E 7 7.$.1 1 5.3 I * * U 4.0 ; O   . X . r j S %XG._.",
"J.F |.z M j t y d U [ $.$.&.$.0 : ! 0 = U U U U ( 5 U > [ = d f d I [ , d y t w w r j Z K -Xs.J ",
"L.S `.j Z j w + s I R 4 1 > > ; I U : * d d d I U * I : * & s y y d d % s y w w w e i Z K :Xs.p.",
"0Xx..Xj m i w . o s I U > U I : $ * & # y O O @ * s d $ s o O + + @ # o @ + w X w r e m K -Xm.;X",
"Y.' XXZ F Z M z k c Q Q Q Q Q Y Q c c x k x x f c c b b c c x p a x x c k k z i e i l A K ;XN.P.",
"'.Z  X` L F Z Z V V C C C C C v C V V v V Z D M v D v V V V Z j V V V M Z l M M Z Z S K P 7Xl.x.",
"8XJ b.W.L K S A A F F H C F F V S F Z A A F F F F F F S F F S Z F F F F F F S A A S K L C.iXm.`.",
"9XoXa.-X Xm.x.x.z.z.k.k.z.f.f.a.f.a.a.p.p.p. .u.p.u.}  . .} } { } } } { { { ' { { P P z.8XwXwXrX",
"eX_.J m.-X2XwXwXwXwX8XeXwXwXwXwXeXwXwXeXqX8XwXeXwXqX8XeXeXqXqXqXqX9X0X9X9X2X9X8X8X8X7XqX3XX.x.'.",
"tXrXK.a.G p.k.a.z.x.k.L.f.v.k.v.B.N.Z.T.n.m.n.K.K.K.K.E.K.K.L.U.W.E.!.`.G.U.Y.'.U.'.E.[.v.{ 8XtX",
"tXtXiX[.F.B.B.P.m.N.D._.f.D.M.L.z.x.a.v.J  .K.Y.K.v.m._.V.{ P n.m.{ G B.u.a.a.}  . .S J.l.5XyXrX",
"yXyX<XrX&X[.XX;X%XoXXXOX[._.OX3X0XoX`.[.XX+XOX9X;X;X+X%XoX[.5X8X;X%X].%X;X&X;X3X>X4X%X8X0X5XtXyX",
"*X(.rXtX0X1X%X#X0X2X2X9X9X9X/.>X*XH.8X1X[.+X+XwX9X0X&X1XXX#X(.>X[.H.`.[.oX%XE.`.G._.`.oX1XrX}.5X",
"^.*XyXtXtXtXrXtXtXtXtXtXrXuX6X).^.*XuXrXtXtXtXtXtXtXrXtXtXuX6X(.^.,XuXrXtXtXyXrXtXtXtXtXtXuX5X(."
};
