/* XPM */
static char *_640710508628[] = {
/* columns rows colors chars-per-pixel */
"48 48 62 1 ",
"  c #ACA9A4",
". c #ADAAA5",
"X c #AEABA6",
"o c #AFACA7",
"O c #B0ADA8",
"+ c #B1AEA9",
"@ c #B2AFAA",
"# c #B3B0AB",
"$ c #B4B1AC",
"% c #B5B2AD",
"& c #B6B3AE",
"* c #B8B5B0",
"= c #B9B6B1",
"- c #BBB8B3",
"; c #BCB9B4",
": c #BDBAB5",
"> c #BEBBB6",
", c #BFBCB7",
"< c #C0BDB8",
"1 c #C1BEB9",
"2 c #D3D0CB",
"3 c #D4D1CC",
"4 c #D5D2CD",
"5 c #D6D3CE",
"6 c #D7D4CF",
"7 c #D8D5D0",
"8 c #D9D6D1",
"9 c #DAD7D2",
"0 c #DBD8D3",
"q c #DCD9D4",
"w c #DDDAD5",
"e c #DEDBD6",
"r c #DFDCD7",
"t c #E0DDD8",
"y c #E1DED9",
"u c #E2DFDA",
"i c #E3E0DB",
"p c #E4E1DC",
"a c #E5E2DD",
"s c #E6E3DE",
"d c #E7E4DF",
"f c #E8E5E0",
"g c #E9E6E1",
"h c #EAE7E2",
"j c #F1EEE9",
"k c #F2EFEA",
"l c #F3F0EB",
"z c #F4F1EC",
"x c #F5F2ED",
"c c #F6F3EE",
"v c #F7F4EF",
"b c #F8F5F0",
"n c #F9F6F1",
"m c #FAF7F2",
"M c #FBF8F3",
"N c #FCF9F4",
"B c #FDFAF5",
"V c #FEFBF6",
"C c #FFFCF7",
"Z c #FFFDF8",
"A c #FFFEF9",
"S c #FFFFFA",
/* pixels */
"$yNcbbNbbbbbbZ5O$pNvvMbbvMbbvZ6O$aNbbNbbbvbbbN9X",
"i<bbbbMbvNbMNbX9f;cMNvMbvMvNNvX0f>bNMbbbbNNbNbO5",
"Cb0bNcbbbvlMvqvZNN0lNvbNbbvbvqbNNNqcNbMbbbcbvqNN",
"cNcqcZcbbbCcrvvvbbvycNvbMbCcrlvvcbvqlNbbMbNcqcMb",
"ccZcqcNcbbvrcNvbMvNvrvbvMbcrcNvvbbNcrvNbbNcrlNbb",
"bbcNv9bCZbqvNccbbbbNlqMNNbqcbcbvbbbNcqNNNNqvbcbb",
"bMbbbb<i9obbbbNvMNbbMv;fqocMNvNMbvcbNc;f9ObbbMNb",
"bbbbvZa$$9ZcccbMbbMvvZd#O9ZvvbMvNbbcbZfO#9NbMbcb",
"MMbbcMq$#fNvbMbbvMMbbCq##fNbvbMbbbbvbNq#*hNvbbMv",
"bbNbMvO0f;bbbbbbvvbbNvoqd-vNbNvMbMNvNbX9f;bNbMvN",
"bcvNvqbNCbrcbbbbbvvbvrbCNbrlNvvMbMvbcrvNNbqlNbvb",
"bMNcylNvbbvycMMbvMNcykMvvNcrcMvvbbNvrkvvbNcqcNbv",
"vNcrlNbbvbNcycbbvNlycMvvbvNcrlNvbNlycbbbbbNcrlMb",
"CbrvMvcNbMbMcqbZNbqcbvvbMvbNlrNNNvylbcbbbbbNcrbN",
"6ObbbNbbMbbbbb;fq cNvbvMMvMbNv;fqXcNbMbNbcbbNb;a",
"OqNcvvbMMbbbbNh##0McvvMvbbvvbCf##qbMbvbMbNbvbNf$",
"#dMvvNbvbMbbvNr$OfNbvMbbbbvvMNq$OfNbbbbbNbbbbNrO",
"a-bMbbbMbvMbNcX0f>vNbMvbbbMbNboqf;bNbMbNcbNbbbO2",
"MbqkNbbMbvbMcqbNNbrlNbvMvbvMcrvNNbqcNbbbNbMNcqvN",
"vMcrcNbbbMNcycbcvNcrcNvbMbNvykbbbNcycbbbbbNcqkNv",
"vbNcrlbbbNcyvNMbMvNcrlNvbMlycbvbbbNcqcMbbbkrkbbb",
"bbbNcqMNCbqlbbvMMbvNlrMNZbrkvcbMbvbNcybNZbrbMvvN",
"NbbbNb;dqXcMbMvNbvbvNv;fqXvMvMbMMbbbbb;f9OvbvNMv",
"bbMbMNfO#qMcbbbbMMvvbCf#O9bvvMbvbMbbMNfO$0NvbbbM",
"bvvMbNq$$fMvcbNbbMvMcZr$OfNMvMbbbMbbbCq$OfNbbbbb",
"bbNbbbO9h;vMbNbbbbbNbvoqf;vMbMvvbbNbNbX9f>NbbNbb",
"McvbcqbNNbqcNbbMMvvbcrbNCbrlNbbMbbbbcqbNZbqcNvcN",
"bbNvycbcvbcycbbbbMNcylbcbNcrvNbbNbNcykbbbNcrlNbb",
"vNlycNbbbbNvqcNbbNcrcNMvNbbcycNvbNkycbbMbbNcycNb",
"NbqvbcvNMbbNcrbNNbqlbvvMMvbMlqbNNbqcccbMNcbNcqbN",
"6ObbcMbbbvbbbb;f9XvbNMbNbvbvNb;f9XcNbbbbbbMvbb;a",
"OqCbbvvMbMMvMCf#O0NcbvMvbMbvbCf#$9MbNbbbMbbvNCfO",
"#dNbbbbbbMbbbNq&$fNbvMMbvNbbvNq$#dCvbbNvbbbbbZqO",
"a=bMMbbbvbNbCbX9h;vNbbvbbbNbNcXqf-bbMbbbbNNbNbX5",
"bbrlNbbMvbbbcrbbNMqcNbbNNvvbcqvNNbykNvbbNccbvrvN",
"bbcycbbbbMNvykMbvbcrvMbbbbNcycbvbbcycNbbbMMcylbb",
"bbNcrcNbbbkycMbbbbNcrlMvbNlycNMbMbMcrcNbvNlrlNbb",
"bbbNcqbNCbyccvbbNbbNlqbCZvqlvvbbMbbNlrNNNNqlbvbN",
"bvbbbb;dqobNbMbMbbMvNv;fqXlMbMbbbbbbbb;fq$MbvNbb",
"MMccvZf#$0NvvbMbbbbvNNfOO9McbbNvbMbbbZfO#qMbNbbb",
"bcbbbZq$$aZvbNbvbbNbbZ9$=dCbbbbMbNbbbNq$$aZbbNbc",
"bMNbbv#6d>bMMvbbcbbbNbOqf;cbMvMbbbMbNcXqa<bbbbMb",
"MbcMvqbNMMqlNbMMbNbbcqbNNNqcNcMbbbbbvqbNZbqvNcbN",
"bbNcylbvbbcrcNbbbbNcrcbNbMbqlNvbbMNcycNbvNc0vNcb",
"bMcqlNvbMbNvrcvbNMcrcNvbbbNcqvbbbNlycNbbbcNcqbNb",
"NNqvblvbbbvNlqNNNbqkbbMMbMvNlqNNZbqcbbbbMbcNbqbN",
"5OvMbMNbbbcbNb;fqObNbbbbbbvMMc;dqXvNbMbNbbbbbb<i",
" 5NbMbcNbbbbbCa$O5NvMbbMMbbbbCa#O9NbbbNbbbNbbNa$"
};
