/* XPM */
static char *_640714676322[] = {
/* columns rows colors chars-per-pixel */
"48 48 235 2 ",
"   c #34133A",
".  c #3B163C",
"X  c #471507",
"o  c #58170B",
"O  c #6A1D0D",
"+  c #621C0C",
"@  c #741D0E",
"#  c #562609",
"$  c #532417",
"%  c #622D0B",
"&  c #67230A",
"*  c #78280B",
"=  c #6F380E",
"-  c #68340D",
";  c #733B0E",
":  c #7B3208",
">  c #69351A",
",  c #703B14",
"<  c #562635",
"1  c #552527",
"2  c #643724",
"3  c #65263B",
"4  c #7B2B25",
"5  c #4D1C34",
"6  c #7A420C",
"7  c #7F4516",
"8  c #714C33",
"9  c #3C1642",
"0  c #421846",
"q  c #47194A",
"w  c #5B1D5A",
"e  c #4D244D",
"r  c #492156",
"t  c #4D2359",
"y  c #4F2852",
"u  c #52245D",
"i  c #532959",
"p  c #572F50",
"a  c #6A3956",
"s  c #75394B",
"d  c #5B2663",
"f  c #5D2866",
"g  c #572560",
"h  c #652669",
"j  c #6A276C",
"k  c #65286A",
"l  c #68286B",
"z  c #622566",
"x  c #71266F",
"c  c #7D296C",
"v  c #683569",
"b  c #752671",
"n  c #762872",
"m  c #793878",
"M  c #6E3272",
"N  c #78477C",
"B  c #745677",
"V  c #68486C",
"C  c #78607E",
"Z  c #862D0F",
"A  c #97390D",
"S  c #902D0E",
"D  c #A2390A",
"F  c #B22C15",
"G  c #B82817",
"H  c #B53617",
"J  c #AE2F10",
"K  c #953233",
"L  c #943222",
"P  c #B13827",
"I  c #CD320E",
"U  c #C42915",
"Y  c #C82C14",
"T  c #CD3214",
"R  c #C83715",
"E  c #DD3C13",
"W  c #D23614",
"Q  c #C53928",
"!  c #984D07",
"~  c #90560F",
"^  c #B25509",
"/  c #BB4614",
"(  c #AE4D0C",
")  c #B86208",
"_  c #AB6204",
"`  c #9C4D21",
"'  c #AB682A",
"]  c #B45B29",
"[  c #DA4B0F",
"{  c #DB540E",
"}  c #DE5B0C",
"|  c #D3560E",
" . c #C64A13",
".. c #D44312",
"X. c #D94412",
"o. c #D54C10",
"O. c #D94B12",
"+. c #C85711",
"@. c #DC5214",
"#. c #D85C1A",
"$. c #C7550D",
"%. c #EA560E",
"&. c #E45C0C",
"*. c #EA5C0C",
"=. c #E2550E",
"-. c #E44911",
";. c #E65C13",
":. c #E54F0E",
">. c #D86B09",
",. c #C87A07",
"<. c #D97707",
"1. c #DC6716",
"2. c #C66806",
"3. c #EC6D06",
"4. c #E4630A",
"5. c #EB640B",
"6. c #EB6A09",
"7. c #E56C07",
"8. c #EC7305",
"9. c #ED7C04",
"0. c #E97908",
"q. c #F07D04",
"w. c #EA6B13",
"e. c #E66814",
"r. c #E87615",
"t. c #D44C35",
"y. c #D14C2D",
"u. c #C67833",
"i. c #D27334",
"p. c #822C68",
"a. c #8A3463",
"s. c #80327A",
"d. c #8D495E",
"f. c #975256",
"g. c #9A7C66",
"h. c #896A55",
"j. c #C75647",
"k. c #CE6E54",
"l. c #DB7666",
"z. c #C7756A",
"x. c #BB8703",
"c. c #DE8703",
"v. c #D79104",
"b. c #EE8204",
"n. c #ED8A03",
"m. c #E68806",
"M. c #F18302",
"N. c #F28C02",
"B. c #F08A0C",
"V. c #E79704",
"C. c #F49501",
"Z. c #F59B01",
"A. c #F1940F",
"S. c #EC8815",
"D. c #F18B18",
"F. c #F29414",
"G. c #EC921C",
"H. c #DBA104",
"J. c #F5A401",
"K. c #F8AC01",
"L. c #F4AC02",
"P. c #F8B201",
"I. c #EBA304",
"U. c #CB843C",
"Y. c #E9853E",
"T. c #D78A45",
"R. c #F49843",
"E. c #EB9541",
"W. c #D58679",
"Q. c #E48776",
"!. c #7C5680",
"~. c #8A4A86",
"^. c #924E8B",
"/. c #8B5C8A",
"(. c #826484",
"). c #986A95",
"_. c #8F758E",
"`. c #A4719D",
"'. c #AF7CA8",
"]. c #988197",
"[. c #AA97A9",
"{. c #B792B2",
"}. c #AC8BAB",
"|. c #B5B1AE",
" X c #BCABB8",
".X c #B6B5B2",
"XX c #B8B7B4",
"oX c #BAB9B6",
"OX c #BEBCB9",
"+X c #BBB0BA",
"@X c #ADA1AB",
"#X c #AE9889",
"$X c #D89389",
"%X c #E79888",
"&X c #D9A39A",
"*X c #E2A69A",
"=X c #C29CBB",
"-X c #C5BFB9",
";X c #D3AFB4",
":X c #E9AEA4",
">X c #E7B8AF",
",X c #C3C2BE",
"<X c #D4C8BD",
"1X c #E9C1BB",
"2X c #CAACC3",
"3X c #C7B8C3",
"4X c #D4BACC",
"5X c #C6C5C1",
"6X c #C8C6C3",
"7X c #CAC8C5",
"8X c #CDCDC9",
"9X c #CFC4CA",
"0X c #D5C9CC",
"qX c #D7D5D3",
"wX c #DCD9D6",
"eX c #DEDDD9",
"rX c #DCD6D5",
"tX c #D5C8CE",
"yX c #E0DEDA",
"uX c #E2D4D9",
"iX c #E8CDC9",
"pX c #E3E1DD",
"aX c #E9E2DE",
"sX c #F4E1DB",
"dX c #E8DEE1",
"fX c #E7E5E1",
"gX c #EAE5E3",
"hX c #EDEBE6",
"jX c #EFECE8",
"kX c #F1EEEA",
"lX c #F1E7E5",
"zX c #F5F3EE",
"xX c #F8F4EF",
"cX c #F7F4F0",
"vX c #F9F6F1",
/* pixels */
"OXyXxXzXcXvXvXvXcXvXvXvXvXvXqXoXOXeXcXcXvXvXvXvXvXvXvXvXvXvXwXoXOXwXcXvXvXvXvXvXvXcXvXvXvXvXpXoX",
"pX,XzXdXuXvXvXvXcXcXvXvXvXcXXXtXfX,XcXcXvXvXvXvXvXvXvXvXvXcXoX8XaX,XzXvXvXvXvXvXcXvXvXvXvXzXOX,X",
"vXzXeX9X/.dXvXvXcXcXcXcXcXdXkXcXcXcXeXjXvXvXvXvXvXvXvXvXcXyXkXvXcXzXeXkXvXvXvXvXvXvXvXvXzXpXzXvX",
"vXvXzXqXN m =XdXcXkXuX=X`.'.4XzXcXcXcXeXcXcXvXvXvXvXvXvXyXkXvXzXcXvXzXpXzXvXvXvXvXvXvXvXyXkXzXvX",
"cXvXvXvX@Xd l m ^.~.M j l j n ^.2XvXvXcXeXzXcXvXvXvXzXpXzXcXzXvXvXvXvXvXeXkXvXcXvXvXcXeXzXcXvXvX",
"vXvXvXvXcX(.g f l f j j x j k k b '.lXvXzXeXzXcXvXzXeXkXvXzXvXvXvXvXvXvXzXeXzXcXvXcXeXkXcXcXvXvX",
"vXvXvXvXcXkXB r r u d f l l l l l k M ).=XdX3XwXwX.XzXvXvXvXvXvXvXvXvXzXvXcX7XwXeX|.zXcXvXvXvXvX",
"vXvXvXcXcXcXqX!.r r r t g f k k l l k k j n ~.).[.8XvXvXvXvXvXvXvXvXvXvXvXvXfXoX.X7XcXcXvXvXvXvX",
"vXvXvXvXvXvXqXoX@XB r r r r u f k l j j j j h j j ^.4XvXvXvXvXvXvXvXvXvXvXvXyX.XoXwXvXvXvXvXvXvX",
"vXvXvXvXcXcX.X8XpXOX[.t r r r t d k l j j k j j l k b {.vXvXvXvXvXvXvXvXvXvXOX7XpX,XzXzXvXvXvXvX",
"vXvXvXvXzXeXzXvXcXcXeX[.u r r r r u h j j l j b j x n s.lXvXvXvXvXvXvXvXzXyXzXzXvXzXeXzXvXvXvXvX",
"vXvXvXvXeXkXvXvXcXcXzXeX[.r r r r u k l l k k j l l h b 2XvXvXvXvXvXvXzXpXkXzXzXvXvXzXpXzXvXvXvX",
"vXvXcXeXcXvXvXvXvXvXvXvXXXr r r t f j j h k l h z l k x ).dXvXvXvXvXzXpXzXzXvXvXvXvXvXvXeXkXvXvX",
"vXvXeXkXvXvXvXvXvXvXvXvXtXr r t f l z d u u u u f l l k b ~.uXvXvXzXpXhXcXvXvXvXvXvXvXvXzXyXzXzX",
"qXXXcXvXvXvXvXvXvXvXvXvX9Xr u k f t t u z k k l l j l l k l `.uXeX.XzXvXvXvXvXvXvXvXcXvXvXvX,XeX",
"XX8XcXcXcXvXvXvXvXvXvXcX9Xr t t r t d k j j h z d d d f z k m .X.X7XzXvXvXvXvXvXvXvXvXvXvXvXhX.X",
"oXpXvXzXvXvXvXvXvXvXvXvXcX+Xg t t r u u u t t 9 r r r t g k j [.XXwXvXvXvXvXvXvXvXvXvXvXvXvXpXoX",
"yX,XzXcXvXvXvXvXvXvXvXvXvX+Xt r r r e e < f.k.T.T.T.E.T.t f z (.pXOXzXvXvXvXvXvXvXvXvXvXvXvXOX,X",
"zXzXeXzXvXvXvXvXvXvXvXvXcXtX-Xp < 2 , ; = i.E.~ ~ 7 u.T.> 2 < a aXzXyXkXvXvXvXvXvXvXvXvXzXpXjXzX",
"zXxXzXeXcXvXvXvXvXvXcXcXeXzXaX2 # ; 6 6 , u.E.= 6 > i.U.= 6 7 , ,XcXcXyXzXxXvXvXvXvXvXvXyXhXxXvX",
"vXvXvXvXeXzXcXcXvXvXcXpXcXvX7X# # = 6 6 = ] R.~ ; % E.U.= ; 6 = g.vXvXvXeXkXvXcXvXvXxXyXjXvXvXvX",
"vXvXvXvXzXeXzXcXvXcXeXzXvXvX#X# # % - # - ` Y.u.' ` E.' % - = % 8 kXvXvXcXeXcXcXvXvXpXhXvXvXvXvX",
"vXvXvXvXvXcX5XfXeXXXzXcXcXvXh.# # 1 1 < < a d.d.d.d.f.s < 1 1 $ 2 pXvXcXcXcX5XeXpX.XkXvXvXvXvXvX",
"vXvXvXvXcXcXeXXX.X7XuX3X[.).v k l l k k l l h j j h k j j k k k k m ).}.2XrXwX.XoX,XxXvXvXvXvXvX",
"vXvXvXvXvXvX7X].(.N M x x x x b n n p.p.p.a.a.a.a.a.a.p.p.c b b j x x j j M m !._.3XcXcXvXvXvXvX",
"vXvXvXlX{.~.j z w w q 3 P y.1.#.1.;.*.5.C.Z.C.C.C.J.N.8.5.5.e.1.#.1. .K 0 q w w h j N '.gXvXvXzX",
"zX9X_.i q 9         .  .&.9.1.1.e.*.6.q.C.Z.C.C.C.J.J.M.8.3.5.r.r.r.7.o.4           0 q y (. XkX",
"hXV 0 0 0 0 9 .     L | 8.0.r.$.%.8.q.Z.C.C.C.C.C.C.J.C.M.8.3.| w.r.b.} ..5 9   9 0 0 0 0 0 y rX",
"xXzX3X(.v y 0 0 e < ..4.b.r.6.S & >.N.C.C.C.C.C.C.Z.C.J.N.>.* A 5.r.b.3.{ L 0 0 0 q e a B @XaXvX",
"xXzXeXkXfX6X[._.B K o.8.b.S.5.( o H 8.N.C.C.C.C.C.C.C.J.8.R o ^ *.r.S.q.&.R a V B ]. XrXzXyXzXvX",
"wXoXzXvXzXcXzXcXvXt.} 9.m.r.%.7.O S I D <.C.C.C.Z.C.<.A I J o <.*.5.D.b.7.W *XzXvXvXcXcXvXvX7XyX",
"oX8XvXvXvXvXvXvX1XW 4.M.D.r.%.5.^ O O Z <.C.C.0.C.C.<.Z + O ) C.5.*.F.n.8.{ l.vXvXcXcXcXvXvXpX|.",
"oXfXcXvXvXvXvXvX%X..7.b.D.r.%.*.q.m.c.n.C.C.9.I m.C.C.C.v.I.P.N.5.%.D.B.9.{ t.vXvXvXvXvXvXvXpXoX",
"rX-XzXvXvXvXvXvXl.o.0.B.G.6.*.*.6.M.M.N.n.C.5.[ 2.Z.C.C.K.P.J.C.8.%.D.A.b.} y.vXvXvXvXvXvXvXOX,X",
"zXzXeXzXvXvXvXvXk.X.6.B.G.w.*.4.3.M.b.) N.C.Z.Z.Z.Z.C.C.P.P.V.c.3.%.D.A.9.} W vXvXvXvXvXzXpXhXvX",
"zXzXzXpXvXvXvXvXk.X.4.9.e.4.*. .) q.! : b.I.J.Z.C.C.C.Z.P.P.! C.3.*.r.r.b.:.Q vXvXvXvXvXpXhXvXvX",
"zXvXvXzXpXzXvXvXl...4.9.#.;.*.o.% _ o & c.A ^ c.K.C.Z.v.P.x.~ V.3.%.w.6.0.@.Q vXvXvXzXpXjXvXvXvX",
"vXvXvXvXzXeXzXvX$XW =.b.@.:.%.:.* X & Z O S S J D ) ) ~ ~ o v.C.5.%.;.r.8.o.j.cXvXvXpXhXvXvXvXvX",
"vXvXvXvXzXzX5XfX;XI { 3.@.@.-.-.H X ^ m.* v.V.( Z @ O + X 6 L.m.*.-.:.6.&...k.yXpXOXhXvXvXvXvXvX",
"vXvXzXvXvXvXeXXX+XR O.&.O.O.E E 1.A 7.0.m.Z.C.K.,.@ O ^ % H.C.>.-.-.X.;.&.T $X|.oX,XvXvXvXvXvXvX",
"vXvXvXvXvXvXwXoXoXW.T =.=.R X.W X.M.3.5.q.N.C.C.Z.L.,.Z.I.L.<.| E X.X.&.[ y.qXoX.XyXvXvXvXvXvXzX",
"vXvXvXvXvXcX.X7XrX|.t.X.&.W W W Y O.&.5.6.N.C.C.C.C.C.B.m.<.+...W W [ [ T *XoX,XyXoXzXzXvXvXvXvX",
"vXvXvXvXzXyXkXcXxXzX>XT O.:.U T U R o.#.=.8.n.C.n.m.<.>.2.+./ W T W @.W l.yXhXvXvXzXeXzXvXvXvXvX",
"vXvXvXvXyXkXxXxXxXxXkX&Xt.X...U R G U  .o.| >.>.<.>.>.+.+./ R T T :.X.Q.uXhXvXvXvXvXzXeXvXvXvXvX",
"vXvXcXyXkXvXcXvXvXvXvXzXiXQ.E W G U G G H / / /  ./ / / H U U T E t.1XaXzXcXvXvXvXvXvXvXyXzXvXvX",
"vXvXpXjXzXcXvXvXvXvXvXvXjXeXsX:XQ.k.Q G F F F J J J P H P j.l.%X1XvXaXhXvXvXvXvXvXcXcXvXzXeXzXvX",
"yXOXzXzXvXvXvXvXvXvXcXvXvXzX<XfXpXoXiX:X:XW.j.k.z.$X>X*X1XlX6XpXpX,XaXvXvXvXvXvXvXvXvXvXvXzX7XpX",
"XX6XcXcXvXvXvXvXvXvXcXvXvXvXwX.XXX5XcXvXvXvXvXvXvXcXvXvXvXvXeX.XoX,XvXvXvXvXvXvXvXvXvXvXvXvXpX|."
};
