/* XPM */
static char *_640708772499[] = {
/* columns rows colors chars-per-pixel */
"48 48 37 1 ",
"  c #150C08",
". c #1A0F0A",
"X c #1E110B",
"o c #24130D",
"O c #29160F",
"+ c #2A1710",
"@ c #2C1810",
"# c #351D13",
"$ c #391E15",
"% c #3D2117",
"& c #3E2218",
"* c #42241A",
"= c #48271C",
"- c #4C291E",
"; c #512C1F",
": c #542E21",
"> c #582F22",
", c #573023",
"< c #5B3124",
"1 c #633626",
"2 c #663827",
"3 c #693A27",
"4 c #653728",
"5 c #673828",
"6 c #6C3B29",
"7 c #733E2B",
"8 c #75412D",
"9 c #7A432F",
"0 c #7D4530",
"q c #814630",
"w c #864A33",
"e c #8D4E35",
"r c #8C4E38",
"t c #904F36",
"y c #915037",
"u c #95533A",
"i c #98553C",
/* pixels */
"********=*****************&**&******************",
"*=19909099999990990090999999000099999999999981=*",
"*119uiuuuuiuuuiuuuuuuuuuuuuuuuuuuuuuiiiuuuuu911*",
"*8q<9ew*=weeeeeeyeeyteeeyyyeyeyyteteeew==ey9<93*",
"*9u9<9wO@etteeeeeeeeeeeeeeeeeeyettetetwOOw9<9w1*",
"*9uyq<999eweeweweeweeeeweeewewwewwewewe90910yw3*",
"*9u62916668668888888888888888888888683838<916w3*",
"*9yo.q7;31111;%$###$$$$$###%#%##$%-21122;9q @w3*",
"*8u31w61eq9euq=***&&;-*****%=-**&=9ut09e1wy<8w2*",
"*9ietw72e$Xqti0:<<:;6<<<<<<-12<,:0itw#oq1wieew2*",
"*8utee61e;*qttiq:<:;5<<<<<<-12,;9itet-*w1rueew2*",
"*9ieee62eeeeeeeu0;;:6<<,<<<-11;0uteeeeee<wutew2&",
"*9uetw61qeeeeeeti0;;6<<<<<,-<<0itettete0<wyeew2*",
"*9ieyw7;3qweteetri0:5<<<<<<-;0iyeeeeee92,ruetw2*",
"*9utte8%$6qeeeetrui0,,<<<<,;9iyeetete92%%ruetw5*",
"*8ueew8=o$6qeeeterri0;,<<,;0itteetew98%o=ruetw5*",
"=7ietw7>-o$60eteeettiq:>>:0itteeeew06$O->rretw2*",
"*7ittw7:>-X$6qwreeeeri0::0iteeeter06$+-<:ruetw2&",
"*7ietw7>>>&o$6qreeteeyu80iyteeetr06#O,<<:rueew2*",
"*0ittw7><<:-+$60eeteeeeuureeeeee04%o=3<<:euetw2*",
"*0ittw7><<-4:o$60eeeeeuuteettee04%o*:6<<:eueew5*",
"*7ittw7><<-14-o$60eeeuiteteeee03%o-;:6<<:wuetw5&",
"=7ieew7:<,-14<-o$6qetieeteeeeq6$+-,;:4<<>wurew2*",
"*7ieer7:<,-14<<-o%7yitetteee96$o-<,::6<<:rueee2*",
"*7itee7:<<-<4<<,=*quteeeeee9q9*=<<<:-6<<:euetq4*",
"*0uetw7:<<-44<,,:quttettee9qtuq;>,<::5<<:eueee5*",
"*0ietw7><<-<4<,:0iteeeeeeqqeetuq:>>::5<<:eueee5*",
"*7itee7:<>-44,:0itteetee9qttteti0:>::5<<>wuetq1*",
"*9utee7;<<-41:quteteeeeqqeeeeeeti0:::5<<:wurtw5*",
"*9uttw7><<-<>0iteeteee9679eeetteeu0-;6<<:ruetw3*",
"&9uttw7>>>-:0iteeteeeq6$$6qeeteeeui0:4<<:euetq5*",
"&9ueee7:>::0iteteeeeq3$Xo$69eeeterri0,>>:euetw5*",
"*0itew7;<;0itteeetwq6#o--o#60reeeetti0:>:wtttw5*",
"*7ueew7;;qitteetrrq6$o-<>:o$60weteeeei0;:tittw5*",
"*7itee7;qiytteetwq6$o-<<,<-o$60weeetttu0:wuwtw4*",
"*0ueee71iteeettwq6$o><><<<>*o$70wteeettu1wuttw4*",
"*0itee71twqeeeeq5$X*51<<<<<-:O$6qwtttwqe1etetw2*",
"*9ueee61e*oqteq3$o*:5<<<<<,-1:o$7qwte$Ow1wutew3*",
"&7ieee61e=#qeq6#o=::6<><,<,-14=o$60ww=#w1wuetw4&",
"*9u:=q71eewtq6#o=,::6<>><<<-14,-o$60ewee4we=>q3*",
"*9yO.q7;11111-*=>:::>>:::::;><;;-&:>1414:7q.#q1*",
"*9uq99<9weewwrrtrerrrrrerrrytttterrewwwe0<99qe1*",
"*9ut9<q78yyyuyuututttutuuytyyuyyyuutuut770>9tw3*",
"*9u9<qq.oweeeeeettttteteteeteteteeeeeeqXowq<9e3*",
"*79<9te11eeeeeeettwtettteeeeeeeeettetee11ttq<97&",
"*<<qeqqqwwwwwwwwwwwwqwqqqeeqwqwwqwwqwwqwqqqwq11*",
"*=16533113133122553355535513222233552222332361**",
"****************&********&******&********&******"
};
